<svg width="512" height="512" viewBox="0 0 512 512" fill="none" xmlns="http://www.w3.org/2000/svg">
    <path d="M262.038 290.354H231.783C234.674 288.582 237.38 286.49 239.561 283.833C243.377 285.426 247.445 286.24 251.62 286.24C260.825 286.24 269.062 282.305 274.916 276.07C277.735 276.777 280.626 277.17 283.583 277.17C292.829 277.17 301.747 273.55 308.491 267.314C312.308 268.164 316.34 268.236 320.264 267.665C320.652 268.057 321.154 268.414 321.584 268.8L262.038 290.354ZM201.386 263.558C201.386 259.831 202.921 256.324 205.699 253.702C209.163 250.439 209.557 245.083 206.559 241.398C204.205 238.491 201.386 233.706 201.386 227.257C201.386 217.824 207.198 209.746 215.477 206.304C217.119 206.554 218.762 206.803 220.434 206.803C223.612 206.803 226.718 206.161 229.675 205.311C239.632 207.725 247.051 216.623 247.051 227.257C247.051 228.458 246.836 229.629 246.657 230.8C245.874 235.656 249.159 240.263 254.081 241.148C260.574 242.284 265.317 247.925 265.317 254.481C265.317 261.994 259.182 268.093 251.62 268.093C247.409 268.093 244.375 266.179 242.559 264.545C240.271 262.565 237.171 261.78 234.244 262.529C231.318 263.272 228.928 265.4 227.895 268.2C225.894 273.55 220.757 277.17 215.082 277.17C207.52 277.17 201.386 271.071 201.386 263.558ZM116.256 215.838C119.47 213.752 121.041 209.882 120.109 206.161C119.613 204.176 119.183 202.048 119.183 200.033C119.183 198.505 119.362 197.019 119.649 195.563C121.931 210.875 135.096 222.716 151.152 222.716C155.04 222.716 158.785 221.937 162.244 220.659C163.176 222.044 164.352 223.286 165.923 223.994C170.809 226.229 173.981 231.049 173.981 236.328C173.981 243.847 167.847 249.94 160.285 249.94C154.61 249.94 149.473 246.361 147.478 241.012C146.439 238.17 144.05 236.048 141.087 235.335C138.166 234.592 135.024 235.371 132.778 237.392C132.599 237.606 132.312 237.748 132.097 237.927L110.158 226.407C110.444 222.115 112.583 218.287 116.256 215.838ZM137.449 141.044C143.339 141.044 148.727 143.808 152.221 148.628C154.825 152.177 159.568 153.378 163.528 151.499C173.019 147 183.12 154.299 183.12 163.732C183.12 170.324 178.371 175.924 171.807 177.095C169.346 177.523 167.208 178.902 165.816 180.994C164.424 183.051 163.958 185.565 164.496 187.978C164.741 189.078 164.848 190.071 164.848 190.956C164.848 198.47 158.714 204.568 151.152 204.568C143.584 204.568 137.449 198.47 137.449 190.956C137.449 189.964 137.628 188.828 138.023 187.443C139.307 182.73 136.631 177.838 131.99 176.387C124.32 173.974 119.183 167.061 119.183 159.191C119.183 149.199 127.39 141.044 137.449 141.044ZM189.326 79.754C192.641 77.5904 194.212 73.5841 193.143 69.7917C192.534 67.5211 192.253 65.6427 192.253 63.907C192.253 51.3947 202.491 41.2184 215.082 41.2184C227.68 41.2184 237.918 51.3947 237.918 63.907C237.918 67.6994 236.885 71.4917 234.812 75.0701C233.528 77.2694 233.247 79.9264 234.065 82.3397C234.848 84.7887 236.634 86.7681 238.951 87.8321C243.879 90.0314 247.051 94.8877 247.051 100.208C247.051 107.721 240.916 113.82 233.354 113.82C227.68 113.82 222.543 110.206 220.542 104.85C219.509 102.05 217.119 99.9224 214.192 99.1794C213.482 99.0011 212.729 98.8941 211.982 98.8941C209.766 98.8941 207.592 99.7084 205.878 101.2C204.062 102.829 201.028 104.743 196.817 104.743C189.254 104.743 183.12 98.6444 183.12 91.1311C183.12 86.5244 185.438 82.3041 189.326 79.754ZM181.119 212.331C182.439 208.289 183.12 204.212 183.12 200.033C183.12 198.291 182.941 196.591 182.726 194.963C182.833 194.077 183.048 193.292 183.084 192.407C186.041 191.028 188.681 189.185 191.04 187.057C192.498 190.564 194.535 193.863 197.247 196.698C191.357 201.84 187.009 208.575 184.828 216.231C183.687 214.881 182.511 213.502 181.119 212.331ZM183.257 264.83L178.515 262.351C180.444 261.002 182.152 259.48 183.723 257.774C183.365 259.658 183.12 261.572 183.12 263.558C183.12 263.98 183.222 264.408 183.257 264.83ZM256.148 136.508C256.148 142.565 253.795 148.242 249.368 152.599C246.692 155.292 243.342 157.206 239.417 158.234C236.92 158.876 234.812 160.576 233.635 162.882C232.458 165.147 232.315 167.84 233.211 170.253C235.134 175.216 233.886 180.851 230.069 184.644C229.143 185.565 228.038 186.1 226.927 186.7C226.037 186.629 225.147 186.415 224.215 186.415C221.08 186.415 218.081 186.843 215.154 187.479C213.553 186.843 212.018 185.886 210.77 184.608C206.774 180.637 205.699 174.473 208.13 169.26C209.414 166.496 209.199 163.304 207.628 160.719C206.093 158.198 203.381 156.641 200.454 156.427C198.674 149.021 194.284 142.601 188.293 138.208C188.968 136.401 190.001 134.695 191.393 133.316C194.678 130.053 199.385 128.674 203.99 129.595C207.879 130.445 211.732 128.603 213.691 125.232C213.691 125.232 213.727 125.197 213.727 125.161C219.222 129.453 226.109 131.967 233.354 131.967C240.773 131.967 247.517 129.346 252.976 125.09C254.971 128.531 256.148 132.395 256.148 136.508ZM270.245 228.779C273.56 225.093 278.273 222.716 283.583 222.716C287.406 222.716 290.577 223.958 292.895 225.379C293.576 234.063 297.321 242.04 303.318 248.061C301.425 248.596 299.675 249.696 298.39 251.396C294.753 256.359 288.935 258.981 283.159 258.874C283.338 257.423 283.583 255.967 283.583 254.481C283.583 243.99 278.374 234.556 270.245 228.779ZM275.985 195.492C285.476 195.492 294.215 190.814 299.531 183.3C301.891 183.473 304.136 183.372 306.382 183.122C308.204 185.922 310.522 188.335 313.198 190.285C305.887 193.863 299.997 199.748 296.467 207.047C292.328 205.454 288.009 204.568 283.583 204.568C275.561 204.568 268.1 207.118 262.038 211.517C258.824 203.932 253.436 197.477 246.591 193.013C248.98 189.607 250.581 185.815 251.441 181.808C256.542 189.999 265.604 195.492 275.985 195.492ZM275.167 156.284C279.909 155.934 283.619 151.999 283.619 147.249C283.619 147.071 283.583 146.928 283.583 146.75C283.762 136.895 291.897 128.953 301.855 128.953C311.914 128.953 320.121 137.109 320.121 147.107C320.121 157.099 311.914 165.254 301.855 165.254C300.427 165.254 298.892 165.004 297.034 164.475C292.363 163.197 287.543 165.718 285.942 170.217C284.443 174.473 280.447 177.344 275.985 177.344C270.101 177.344 265.317 172.595 265.317 166.746C265.317 161.319 269.635 156.712 275.167 156.284ZM335.316 161.64C336.672 162.882 337.712 164.475 338.172 166.354C338.888 169.403 341.17 171.882 344.169 172.874C347.161 173.867 350.482 173.267 352.907 171.246C355.261 169.296 358.116 168.268 361.222 168.268C367.213 168.268 372.243 172.096 374.1 177.451C364.573 177.659 355.798 181.701 349.306 188.228C348.445 186.593 347.806 184.893 347.663 183.051C347.412 179.93 345.56 177.13 342.741 175.71C339.922 174.295 336.565 174.402 333.889 175.995C332.855 176.601 331.213 177.344 329.254 177.344C327.36 177.344 325.652 176.702 324.224 175.745C328.967 172.024 332.891 167.275 335.316 161.64ZM393.19 213.645C393.19 225.908 380.163 235.299 368.139 230.443C364.86 229.135 361.115 229.807 358.546 232.149C355.942 234.521 354.938 238.141 355.978 241.505C356.438 243.033 356.653 244.269 356.653 245.404C356.653 247.39 356.193 249.304 355.404 251.004L340.919 258.63C335.072 257.703 330.251 253.203 329.469 247.176C329.003 243.776 326.649 240.905 323.364 239.769C315.945 237.249 310.988 230.407 310.988 222.716C310.988 212.724 319.195 204.568 329.254 204.568C334.319 204.568 339.068 206.661 342.598 210.453C344.772 212.759 347.95 213.782 351.086 213.181C354.192 212.545 356.76 210.382 357.865 207.404C360.505 200.277 367.357 195.492 374.919 195.492C384.983 195.492 393.19 203.647 393.19 213.645ZM393.155 182.379C393.155 182.201 393.19 182.058 393.19 181.88C393.19 164.368 378.843 150.12 361.222 150.12C357.722 150.12 354.299 150.685 351.05 151.82C347.735 147.457 343.129 144.343 337.921 142.601C335.675 124.739 320.443 110.806 301.855 110.806C289.902 110.806 279.378 116.584 272.706 125.446C271.027 119.49 268.029 114.034 263.782 109.385C264.678 106.443 265.317 103.394 265.317 100.208C265.317 90.8457 261.142 82.1257 254.189 76.1697C255.509 72.1991 256.184 68.0917 256.184 63.907C256.184 41.3967 237.739 23.071 215.082 23.071C192.426 23.071 173.981 41.3967 173.981 63.907C173.981 65.4287 174.089 66.992 174.304 68.6207C168.313 74.5054 164.848 82.5537 164.848 91.1311C164.848 102.865 171.377 113.005 180.904 118.498C180.086 119.169 179.226 119.74 178.479 120.447C175.2 123.746 172.733 127.788 171.132 132.145C170.558 132.11 170.021 131.967 169.418 131.967C167.064 131.967 164.705 132.252 162.387 132.781C155.679 126.51 146.761 122.896 137.449 122.896C117.29 122.896 100.917 139.165 100.917 159.191C100.917 166.425 103.127 173.195 106.908 178.937C103.02 185.214 100.917 192.442 100.917 200.033C100.917 201.662 101.061 203.255 101.24 204.747C95.2428 210.631 91.7843 218.709 91.7843 227.257C91.7843 228.143 91.9993 228.993 92.065 229.843C91.856 230.942 91.7126 232.078 91.8918 233.213L119.906 311.687L201.386 345.925L389.033 305.6L420.518 232.856C420.912 229.522 419.413 226.229 416.629 224.315C414.664 223.001 412.346 222.537 410.101 222.894C410.919 219.916 411.456 216.831 411.456 213.645C411.456 200.241 404.032 188.65 393.155 182.379Z" fill="#008060"/>
    <path d="M131.426 92.2334C131.426 97.2324 135.529 101.31 140.559 101.31C145.588 101.31 149.692 97.2324 149.692 92.2334C149.692 87.2344 145.588 83.1567 140.559 83.1567C135.529 83.1567 131.426 87.2344 131.426 92.2334Z" fill="#008060"/>
    <path d="M275.012 14.0767C275.012 9.07766 270.914 5 265.878 5C260.849 5 256.745 9.07766 256.745 14.0767C256.745 19.0757 260.849 23.1474 265.878 23.1474C270.914 23.1474 275.012 19.0757 275.012 14.0767Z" fill="#008060"/>
    <path d="M301.662 59.5366C306.697 59.5366 310.801 63.6143 310.801 68.6133C310.801 73.6063 306.697 77.684 301.662 77.684C296.633 77.684 292.529 73.6063 292.529 68.6133C292.529 63.6143 296.633 59.5366 301.662 59.5366ZM274.263 68.6133C274.263 83.64 286.538 95.8373 301.662 95.8373C316.792 95.8373 329.067 83.64 329.067 68.6133C329.067 53.5806 316.792 41.3833 301.662 41.3833C286.538 41.3833 274.263 53.5806 274.263 68.6133Z" fill="#008060"/>
    <path d="M347.045 468.593L332.559 471.904L253.808 489.869L181.247 506.402L154.176 476.988L127.109 470.209L91 224.958L208.314 198.887L415.827 239.586L379.717 461.144L347.045 468.593Z" fill="#008060"/>
    <path d="M336.265 263.042C332.586 262.61 328.633 262.378 324.369 262.378C320.2 262.378 315.757 262.642 311.152 263.278C301.245 264.473 291.144 266.668 283.291 270.3C275.674 273.827 269.078 278.48 263.651 283.949C258.33 289.308 254.087 295.509 251.066 302.441C248.118 309.331 246.36 316.964 245.965 325.228C245.739 330.181 246.244 334.708 247.418 338.898C248.597 343.13 250.392 347.015 252.655 350.61C254.929 354.247 257.719 357.937 261.088 360.811C265.31 364.433 268.836 367.028 272.663 369.691C275.753 371.792 278.364 373.766 280.543 375.703C282.722 377.645 284.464 379.529 285.801 381.398C287.144 383.272 288.075 385.13 288.66 387.072C289.202 388.983 289.428 390.994 289.318 393.11C289.239 395.226 288.76 397.174 287.891 398.969C287.028 400.732 285.775 402.28 284.164 403.469C282.58 404.706 280.611 405.596 278.348 406.069C276.09 406.543 273.51 406.596 270.631 406.201C267.383 405.764 264.067 404.848 260.877 403.711C257.724 402.569 254.666 401.216 251.782 399.711C248.966 398.216 246.313 396.647 243.933 395.073C241.602 393.526 239.528 392.015 237.854 390.699L227.884 421.513C229.521 423.524 231.632 425.498 234.095 427.372C236.617 429.272 239.496 431.104 242.691 432.857C245.881 434.647 249.445 436.252 253.234 437.679C257.051 439.131 261.146 440.374 265.367 441.305C265.436 441.305 265.541 441.363 265.61 441.363C265.673 441.363 265.778 441.39 265.846 441.39C265.883 441.39 265.962 441.442 266.031 441.442C266.099 441.442 266.199 441.468 266.268 441.468C275.295 443.311 281.396 443.758 289.554 442.737C297.95 441.695 305.672 439.063 312.341 434.868C319.163 430.557 324.816 424.635 328.917 417.092C333.086 409.438 336.107 400.237 336.107 389.51C336.107 355.105 311.367 341.546 297.829 333.334C291.807 329.687 287.259 324.807 287.259 317.917C287.259 312.026 288.823 310.247 289.797 308.352C290.728 306.452 292.702 304.82 294.418 303.42C296.139 302.052 298.287 300.909 300.714 300.109C303.177 299.293 305.925 298.777 309.015 298.599C312.368 298.425 315.626 298.514 318.716 298.809C321.8 299.109 324.769 299.63 327.49 300.241C330.28 300.851 332.791 301.615 335.102 302.415C337.392 303.173 339.465 304.025 341.181 304.826L354.188 267.705C352.051 266.689 349.435 265.752 346.393 264.947C343.387 264.136 339.987 263.478 336.265 263.042Z" fill="white"/>
    <line x1="208.17" y1="199.086" x2="182.567" y2="506.323" stroke="white"/>
</svg>